{
  "accessors": [
    {
      "bufferView": 2,
      "componentType": 5126,
      "count": 654,
      "max": [
        216.30987548828125,
        240.27659606933594,
        453.61956787109375
      ],
      "min": [
        -213.0369873046875,
        -250.39788818359375,
        101.10982513427734
      ],
      "type": "VEC3"
    },
    {
      "bufferView": 2,
      "byteOffset": 7848,
      "componentType": 5126,
      "count": 654,
      "max": [
        0.996812641620636,
        0.9938120245933533,
        0.9998214840888977
      ],
      "min": [
        -0.9965919256210327,
        -0.9640436172485352,
        -0.9997725486755371
      ],
      "type": "VEC3"
    },
    {
      "bufferView": 3,
      "componentType": 5126,
      "count": 654,
      "max": [
        0.7385600805282593,
        0.9964183568954468,
        0.9974316954612732,
        1.0
      ],
      "min": [
        -0.9999591708183289,
        -0.983130693435669,
        -0.9966808557510376,
        1.0
      ],
      "type": "VEC4"
    },
    {
      "bufferView": 1,
      "componentType": 5126,
      "count": 654,
      "max": [
        0.9876177906990051,
        0.9943457245826721
      ],
      "min": [
        0.006930869072675705,
        0.003464463632553816
      ],
      "type": "VEC2"
    },
    {
      "bufferView": 0,
      "componentType": 5125,
      "count": 3684,
      "type": "SCALAR"
    },
    {
      "bufferView": 2,
      "byteOffset": 15696,
      "componentType": 5126,
      "count": 378,
      "max": [
        215.74459838867188,
        240.8493194580078,
        441.9916687011719
      ],
      "min": [
        -215.62693786621094,
        -245.49790954589844,
        115.97592163085938
      ],
      "type": "VEC3"
    },
    {
      "bufferView": 2,
      "byteOffset": 20232,
      "componentType": 5126,
      "count": 378,
      "max": [
        0.9929239153862,
        0.989382803440094,
        0.9924535155296326
      ],
      "min": [
        -0.9930700659751892,
        -0.9932457208633423,
        -0.9937486052513123
      ],
      "type": "VEC3"
    },
    {
      "bufferView": 3,
      "byteOffset": 10464,
      "componentType": 5126,
      "count": 378,
      "max": [
        0.9926671981811523,
        0.99558025598526,
        0.9932404160499573,
        1.0
      ],
      "min": [
        -0.992112398147583,
        -0.9931795001029968,
        -0.9893155694007874,
        1.0
      ],
      "type": "VEC4"
    },
    {
      "bufferView": 1,
      "byteOffset": 5232,
      "componentType": 5126,
      "count": 378,
      "max": [
        0.34195101261138916,
        0.9979999661445618
      ],
      "min": [
        0.0020000000949949026,
        0.0020000000949949026
      ],
      "type": "VEC2"
    },
    {
      "bufferView": 0,
      "byteOffset": 14736,
      "componentType": 5125,
      "count": 1824,
      "type": "SCALAR"
    },
    {
      "bufferView": 2,
      "byteOffset": 24768,
      "componentType": 5126,
      "count": 172,
      "max": [
        156.37152099609375,
        75.6026611328125,
        129.03598022460938
      ],
      "min": [
        -156.37550354003906,
        -195.4332275390625,
        -78.97239685058594
      ],
      "type": "VEC3"
    },
    {
      "bufferView": 2,
      "byteOffset": 26832,
      "componentType": 5126,
      "count": 172,
      "max": [
        0.9543223977088928,
        0.9697307348251343,
        0.2868673801422119
      ],
      "min": [
        -0.9543225765228271,
        -0.9697307348251343,
        -0.9999998211860657
      ],
      "type": "VEC3"
    },
    {
      "bufferView": 3,
      "byteOffset": 16512,
      "componentType": 5126,
      "count": 172,
      "max": [
        0.9496139883995056,
        0.9945855140686035,
        0.896094799041748,
        1.0
      ],
      "min": [
        -0.9496141672134399,
        -0.9945856332778931,
        -0.9897597432136536,
        -1.0
      ],
      "type": "VEC4"
    },
    {
      "bufferView": 1,
      "byteOffset": 8256,
      "componentType": 5126,
      "count": 172,
      "max": [
        0.7396135330200195,
        0.9979999661445618
      ],
      "min": [
        0.0020000000949949026,
        0.0020000000949949026
      ],
      "type": "VEC2"
    },
    {
      "bufferView": 0,
      "byteOffset": 22032,
      "componentType": 5125,
      "count": 672,
      "type": "SCALAR"
    }
  ],
  "asset": {
    "extras": {
      "author": "andree (https://sketchfab.com/maestronoov)",
      "license": "CC-BY-4.0 (http://creativecommons.org/licenses/by/4.0/)",
      "source": "https://sketchfab.com/3d-models/sofa-70eee625ecd3492d93a8a8f2de5aa6c1",
      "title": "Sofa"
    },
    "generator": "Sketchfab-12.65.0",
    "version": "2.0"
  },
  "bufferViews": [
    {
      "buffer": 0,
      "byteLength": 24720,
      "name": "floatBufferViews",
      "target": 34963
    },
    {
      "buffer": 0,
      "byteLength": 9632,
      "byteOffset": 24720,
      "byteStride": 8,
      "name": "floatBufferViews",
      "target": 34962
    },
    {
      "buffer": 0,
      "byteLength": 28896,
      "byteOffset": 34352,
      "byteStride": 12,
      "name": "floatBufferViews",
      "target": 34962
    },
    {
      "buffer": 0,
      "byteLength": 19264,
      "byteOffset": 63248,
      "byteStride": 16,
      "name": "floatBufferViews",
      "target": 34962
    }
  ],
  "buffers": [
    {
      "byteLength": 82512,
      "uri": "scene.bin"
    }
  ],
  "images": [
    {
      "uri": "textures/sofa_baseColor.png"
    },
    {
      "uri": "textures/sofa_metallicRoughness.png"
    },
    {
      "uri": "textures/sofa_normal.png"
    },
    {
      "uri": "textures/leather_baseColor.png"
    },
    {
      "uri": "textures/leather_metallicRoughness.png"
    },
    {
      "uri": "textures/leather_normal.png"
    },
    {
      "uri": "textures/wood_baseColor.png"
    },
    {
      "uri": "textures/wood_metallicRoughness.png"
    },
    {
      "uri": "textures/wood_normal.png"
    }
  ],
  "materials": [
    {
      "doubleSided": true,
      "name": "sofa",
      "normalTexture": {
        "index": 2
      },
      "pbrMetallicRoughness": {
        "baseColorTexture": {
          "index": 0
        },
        "metallicFactor": 0.0,
        "metallicRoughnessTexture": {
          "index": 1
        }
      }
    },
    {
      "doubleSided": true,
      "name": "leather",
      "normalTexture": {
        "index": 5
      },
      "pbrMetallicRoughness": {
        "baseColorTexture": {
          "index": 3
        },
        "metallicFactor": 0.0,
        "metallicRoughnessTexture": {
          "index": 4
        }
      }
    },
    {
      "doubleSided": true,
      "name": "wood",
      "normalTexture": {
        "index": 8
      },
      "pbrMetallicRoughness": {
        "baseColorTexture": {
          "index": 6
        },
        "metallicFactor": 0.0,
        "metallicRoughnessTexture": {
          "index": 7
        }
      }
    }
  ],
  "meshes": [
    {
      "name": "Group62101_sofa_0",
      "primitives": [
        {
          "attributes": {
            "NORMAL": 1,
            "POSITION": 0,
            "TANGENT": 2,
            "TEXCOORD_0": 3
          },
          "indices": 4,
          "material": 0,
          "mode": 4
        }
      ]
    },
    {
      "name": "Group62101_leather_0",
      "primitives": [
        {
          "attributes": {
            "NORMAL": 6,
            "POSITION": 5,
            "TANGENT": 7,
            "TEXCOORD_0": 8
          },
          "indices": 9,
          "material": 1,
          "mode": 4
        }
      ]
    },
    {
      "name": "Group62101_wood_0",
      "primitives": [
        {
          "attributes": {
            "NORMAL": 11,
            "POSITION": 10,
            "TANGENT": 12,
            "TEXCOORD_0": 13
          },
          "indices": 14,
          "material": 2,
          "mode": 4
        }
      ]
    }
  ],
  "nodes": [
    {
      "children": [
        1
      ],
      "matrix": [
        0.003115046536549926,
        0.0,
        0.0,
        0.0,
        0.0,
        6.916792775313154e-19,
        -0.003115046536549926,
        0.0,
        0.0,
        0.003115046536549926,
        6.916792775313154e-19,
        0.0,
        0.0,
        0.0,
        0.0,
        1.0
      ],
      "name": "Sketchfab_model"
    },
    {
      "children": [
        2
      ],
      "matrix": [
        1.0,
        0.0,
        0.0,
        0.0,
        0.0,
        0.0,
        1.0,
        0.0,
        0.0,
        -1.0,
        0.0,
        0.0,
        0.0,
        0.0,
        0.0,
        1.0
      ],
      "name": "sofa.FBX"
    },
    {
      "children": [
        3
      ],
      "name": "RootNode"
    },
    {
      "children": [
        4
      ],
      "matrix": [
        0.6268494129180908,
        0.0,
        0.0,
        0.0,
        0.0,
        1.391885302388853e-16,
        -0.6268494129180908,
        0.0,
        0.0,
        0.6268494129180908,
        1.391885302388853e-16,
        0.0,
        0.0,
        0.0,
        0.0,
        1.0
      ],
      "name": "Group62101"
    },
    {
      "children": [
        5,
        6,
        7
      ],
      "matrix": [
        1.0,
        0.0,
        -0.0,
        0.0,
        0.0,
        1.0,
        0.0,
        0.0,
        0.0,
        0.0,
        1.0,
        0.0,
        0.0,
        -9.007662773132324,
        80.31914520263672,
        1.0
      ],
      "name": "Object_4"
    },
    {
      "mesh": 0,
      "name": "Group62101_sofa_0"
    },
    {
      "mesh": 1,
      "name": "Group62101_leather_0"
    },
    {
      "mesh": 2,
      "name": "Group62101_wood_0"
    }
  ],
  "samplers": [
    {
      "magFilter": 9729,
      "minFilter": 9987,
      "wrapS": 10497,
      "wrapT": 10497
    }
  ],
  "scene": 0,
  "scenes": [
    {
      "name": "Sketchfab_Scene",
      "nodes": [
        0
      ]
    }
  ],
  "textures": [
    {
      "sampler": 0,
      "source": 0
    },
    {
      "sampler": 0,
      "source": 1
    },
    {
      "sampler": 0,
      "source": 2
    },
    {
      "sampler": 0,
      "source": 3
    },
    {
      "sampler": 0,
      "source": 4
    },
    {
      "sampler": 0,
      "source": 5
    },
    {
      "sampler": 0,
      "source": 6
    },
    {
      "sampler": 0,
      "source": 7
    },
    {
      "sampler": 0,
      "source": 8
    }
  ]
}
